<svg version="1.1" id="_x34_" xmlns="http://www.w3.org/2000/svg" xmlns:xlink="http://www.w3.org/1999/xlink" viewBox="-30 0 256 256" xml:space="preserve" width="400px" height="400px" fill="#000000"><g id="SVGRepo_bgCarrier" stroke-width="0"/><g id="SVGRepo_tracerCarrier" stroke-linecap="round" stroke-linejoin="round"/><g id="SVGRepo_iconCarrier"><g><g><path style="fill:#0275d8;" d="M195.075 52.267v180.55c0 12.758 -10.425 23.183 -23.183 23.183H23.183c-0.707 0 -1.379 -0.035 -2.085 -0.106c-0.601 -0.035 -1.237 -0.177 -1.802 -0.283c-0.601 -0.106 -1.202 -0.212 -1.767 -0.389c-0.282 -0.071 -0.566 -0.141 -0.813 -0.212c-0.318 -0.071 -0.636 -0.141 -0.918 -0.247c-1.131 -0.353 -2.227 -0.848 -3.287 -1.413c-0.424 -0.176 -0.777 -0.424 -1.166 -0.671c-0.495 -0.247 -0.99 -0.566 -1.449 -0.883c-0.46 -0.318 -0.848 -0.636 -1.272 -0.99c-0.071 -0.035 -0.106 -0.106 -0.176 -0.141c-0.566 -0.495 -1.095 -0.954 -1.625 -1.484c-0.53 -0.53 -0.99 -1.025 -1.484 -1.625c-0.035 -0.07 -0.106 -0.106 -0.141 -0.176c-0.353 -0.424 -0.671 -0.813 -0.99 -1.272c-0.318 -0.46 -0.636 -0.955 -0.883 -1.449c-0.247 -0.389 -0.495 -0.742 -0.671 -1.166c-0.566 -1.06 -1.06 -2.156 -1.413 -3.287c-0.106 -0.282 -0.176 -0.601 -0.247 -0.919c-0.07 -0.247 -0.141 -0.53 -0.212 -0.813c-0.177 -0.566 -0.283 -1.166 -0.389 -1.767c-0.106 -0.566 -0.247 -1.166 -0.282 -1.802C0.035 234.196 0 233.524 0 232.817v-180.55C0 39.545 10.425 29.12 23.183 29.12h148.709c0.848 0 1.732 0.035 2.579 0.176c5.725 0.636 10.778 3.357 14.454 7.351c2.792 3.004 4.771 6.785 5.654 10.991c0.035 0.247 0.106 0.495 0.141 0.742c0.071 0.424 0.141 0.883 0.212 1.343c0.035 0.176 0.035 0.353 0.035 0.566C195.039 50.925 195.075 51.596 195.075 52.267z"/><path x="31.185" y="89.614" style="fill:#FFFFFF;" width="327.779" height="390.987" d="M15.592 44.807H179.482V240.3H15.592V44.807z"/><path x="31.185" y="89.615" style="fill:#ffffff;" width="327.779" height="14.448" d="M15.592 44.807H179.482V52.031H15.592V44.807z"/><path style="fill:#ffffff;" cx="195.074" cy="192.779" r="76.076" d="M135.575 96.389A38.038 38.038 0 0 1 97.537 134.428A38.038 38.038 0 0 1 59.499 96.389A38.038 38.038 0 0 1 135.575 96.389z"/><g><path style="fill:#0275d8;" points="297.347,50.112 296.004,58.24 293.319,73.789 289.29,97.537 100.859,97.537 100.718,96.477 100.364,94.357 99.516,89.621 96.831,73.789 94.145,58.24 92.802,50.112 " d="M148.673 25.056L148.002 29.12L146.66 36.895L144.645 48.769L50.429 48.769L50.359 48.239L50.182 47.178L49.758 44.81L48.416 36.895L47.072 29.12L46.401 25.056Z"/><g><path style="fill:#0275d8;" d="M123.406 25.056c-0.424 -13.57 -11.274 -24.526 -24.843 -25.02C98.209 0 97.891 0 97.537 0h-0.176c-13.959 0.106 -25.267 11.203 -25.692 25.056c-0.035 0.212 -0.035 0.46 -0.035 0.671v0.176c0 0.353 0 0.707 0.035 1.024c0 0.777 0.07 1.484 0.176 2.191c0.318 2.756 1.095 5.372 2.227 7.774c1.413 3.003 3.357 5.689 5.761 7.916c1.661 1.555 3.498 2.862 5.513 3.958h24.384c2.014 -1.095 3.852 -2.403 5.513 -3.958c2.403 -2.227 4.347 -4.912 5.761 -7.916c1.131 -2.403 1.909 -5.018 2.227 -7.774c0.141 -1.06 0.212 -2.12 0.212 -3.216C123.441 25.621 123.441 25.338 123.406 25.056zM105.913 36.895c-2.297 1.802 -5.231 2.862 -8.376 2.862c-3.145 0 -6.079 -1.06 -8.376 -2.862c-2.509 -1.873 -4.346 -4.63 -5.124 -7.774c-0.247 -1.025 -0.353 -2.12 -0.353 -3.216c0 -0.283 0 -0.601 0.035 -0.848c0.46 -7.245 6.467 -13.005 13.818 -13.005c7.351 0 13.358 5.76 13.818 13.005c0.035 0.247 0.035 0.566 0.035 0.848c0 1.095 -0.106 2.191 -0.353 3.216C110.26 32.265 108.422 35.022 105.913 36.895z"/></g></g><path style="opacity:0.23;fill:#FFFFFF;" d="M46.401 25.056l0.671 4.064h0.035l1.308 7.774h98.244l1.308 -7.774h0.035l0.671 -4.064H46.401z"/><g><g><path x="141.127" y="180.193" style="fill:#0275d8;" width="107.895" height="34.652" d="M70.564 90.097H124.511V107.423H70.564V90.097z"/><path x="177.748" y="143.572" style="fill:#0275d8;" width="34.652" height="107.895" d="M88.874 71.786H106.2V125.733H88.874V71.786z"/></g></g><path x="44.278" y="289.849" style="fill:#0275d8;" width="301.593" height="9.03" d="M22.139 144.924H172.936V149.439H22.139V144.924z"/><path x="60.983" y="324.162" style="fill:#0275d8;" width="268.183" height="19.865" d="M30.491 162.081H164.583V172.013H30.491V162.081z"/><path x="60.983" y="372.019" style="fill:#0275d8;" width="268.183" height="19.865" d="M30.491 186.01H164.583V195.942H30.491V186.01z"/><path x="125.545" y="419.877" style="fill:#0275d8;" width="139.058" height="19.865" d="M62.773 209.939H132.302V219.871H62.773V209.939z"/></g><path style="opacity:0.04;fill:#ffffff;" d="M195.075 52.267v180.55c0 12.758 -10.425 23.183 -23.183 23.183H23.183c-0.707 0 -1.379 -0.035 -2.085 -0.106c-0.601 -0.035 -1.237 -0.177 -1.802 -0.283c-0.601 -0.106 -1.202 -0.212 -1.767 -0.389c-0.282 -0.071 -0.566 -0.141 -0.813 -0.212c-0.318 -0.071 -0.636 -0.141 -0.918 -0.247c-1.131 -0.353 -2.227 -0.848 -3.287 -1.413c-0.424 -0.176 -0.777 -0.424 -1.166 -0.671c-0.495 -0.247 -0.99 -0.566 -1.449 -0.883c-0.46 -0.318 -0.848 -0.636 -1.272 -0.99c-0.071 -0.035 -0.106 -0.106 -0.176 -0.141c-0.566 -0.495 -1.095 -0.954 -1.625 -1.484c-0.53 -0.53 -0.99 -1.025 -1.484 -1.625c-0.035 -0.07 -0.106 -0.106 -0.141 -0.176c-0.353 -0.424 -0.671 -0.813 -0.99 -1.272c-0.318 -0.46 -0.636 -0.955 -0.883 -1.449c-0.247 -0.389 -0.495 -0.742 -0.671 -1.166c-0.566 -1.06 -1.06 -2.156 -1.413 -3.287c-0.106 -0.282 -0.176 -0.601 -0.247 -0.919c-0.07 -0.247 -0.141 -0.53 -0.212 -0.813c-0.177 -0.566 -0.283 -1.166 -0.389 -1.767c-0.106 -0.566 -0.247 -1.166 -0.282 -1.802C0.035 234.196 0 233.524 0 232.817v-7.316l80.574 -80.574l10.956 -10.955l0.035 -0.035l8.234 -8.199l24.703 -24.703l10.567 -10.602l0.035 -0.035l38.45 -38.379l5.902 -5.938l0.035 -0.035l4.241 -4.276l1.625 -1.625l3.57 -3.498c2.792 3.004 4.771 6.785 5.654 10.991c0.035 0.247 0.106 0.495 0.141 0.742c0.071 0.424 0.141 0.883 0.212 1.343c0.035 0.176 0.035 0.353 0.035 0.566C195.039 50.925 195.075 51.596 195.075 52.267z"/></g></g></svg>